<svg xmlns="http://www.w3.org/2000/svg" viewBox="0 0 229.49 116.67"><defs><style>.cls-1{fill:#336667;}.cls-2{fill:#fff;}</style></defs><title>logo-wide-tulane</title><g id="Layer_2" data-name="Layer 2"><g id="Layer_1-2" data-name="Layer 1"><polygon class="cls-1" points="116.67 0 116.67 116.67 0 116.67 108.66 8.01 116.67 0"/><path class="cls-2" d="M42,107.25l4.13-4.68a19.69,19.69,0,0,0,13.1,5.25c5.8,0,9-2.58,9-6.14,0-4.32-3.35-5.52-7.89-7.37l-6.47-2.74c-4.68-1.78-9.82-5-9.82-11.57,0-6.89,6.43-12.1,15.48-12.1A21,21,0,0,1,74,73.45l-3.63,4.32A16.59,16.59,0,0,0,59.3,73.83c-4.82,0-8.07,2.16-8.07,5.77,0,3.84,4,5.24,8,6.76L65.45,89c5.75,2.16,10,5.39,10,11.86,0,7.09-6.21,12.89-16.6,12.89A24.6,24.6,0,0,1,42,107.25Z"/><path class="cls-2" d="M83.74,67.9h28.89v5.93H90.77v13h18.49v5.93H90.77v15.06h22.56v5.93H83.74Z"/><path class="cls-1" d="M120.44,67.9h11.67c13.64,0,21.45,7.87,21.45,22.72s-7.81,23.13-21.09,23.13h-12ZM131.65,108c9.57,0,14.66-6,14.66-17.4s-5.09-17-14.66-17h-4.18V108Z"/><path class="cls-1" d="M162,67.9h7v39.92h22.06v5.93H162Z"/><path class="cls-1" d="M196,107.25l4.12-4.68a19.69,19.69,0,0,0,13.11,5.25c5.8,0,9-2.58,9-6.14,0-4.32-3.35-5.52-7.89-7.37l-6.47-2.74c-4.68-1.78-9.81-5-9.81-11.57,0-6.89,6.43-12.1,15.48-12.1A21,21,0,0,1,228,73.45l-3.63,4.32a16.54,16.54,0,0,0-11.07-3.94c-4.83,0-8.07,2.16-8.07,5.77,0,3.84,4,5.24,8,6.76L219.44,89c5.75,2.16,10.05,5.39,10.05,11.86,0,7.09-6.21,12.89-16.61,12.89A24.57,24.57,0,0,1,196,107.25Z"/></g></g></svg>